<?xml version="1.0" encoding="utf-8"?>
<!-- Generator: Adobe Illustrator 24.1.2, SVG Export Plug-In . SVG Version: 6.00 Build 0)  -->
<svg version="1.1" id="Layer_1" xmlns="http://www.w3.org/2000/svg" xmlns:xlink="http://www.w3.org/1999/xlink" x="0px" y="0px"
	 viewBox="0 0 224 256" style="enable-background:new 0 0 224 256;" xml:space="preserve">
<style type="text/css">
	.st0{fill:none;stroke:#000000;stroke-width:2;stroke-linecap:round;stroke-linejoin:round;stroke-miterlimit:10;}
	.st1{fill:none;stroke:#000000;stroke-width:0.75;stroke-linecap:round;stroke-linejoin:round;stroke-miterlimit:10;}
</style>
<image style="display:none;overflow:visible;enable-background:new    ;" width="1025" height="256" xlink:href="8406E329.jpeg"  transform="matrix(0.999 0 0 0.999 0 0.1249)">
</image>
<path class="st0" d="M133.3,213.8c0,0-17,9.5-43.2,9.2s-51.7-3.7-62.3-17.7s-1.7-34.4,3.4-40.9s16.3-7.5,16.4,2.7
	c0,8.3-10.1,18.5,2.5,27.4s27.1,3.2,27.1,3.2c-1-6.1-8-19.2,5.1-49.7c13.6-31.7,35.7-45.3,35.7-45.3s-1.7-16.7,0-28.6
	s6.1-46.3,14.6-40.9s13.3,22.1,13.3,22.1s2.7-9.2,5.1-16.7s6.1-12.3,9.5-3.7c3.4,8.5,5.2,14.7,14.3,21.4c11,8.2,12.3,16,12.3,21.5
	s-4.8,18.7-20.8,26.2"/>
<path class="st0" d="M123.5,147.7c0,0-1.4,15,0,33.7s9.2,38.5,19.2,38.5c9.9,0,9.1-11.3,9.1-11.3"/>
<path class="st0" d="M151,174.3c0,0-3.3,35.7,4.9,44.4c9.3,9.9,16.2,2.5,16.2-10.7s2.1-48.4,2.8-64c0.7-14-2-43.7-2-43.7"/>
<ellipse transform="matrix(0.9414 -0.3373 0.3373 0.9414 -14.1377 60.4186)" cx="166.8" cy="70.9" rx="4.1" ry="5.1"/>
<path class="st1" d="M162.9,87.1c-15.7-1.5-30.1,18.6-30.1,18.6"/>
<path class="st1" d="M164.6,89c0,0-9.8,1.1-14,12.8"/>
<path class="st1" d="M162.1,84.8c-13.8-2.9-29.3,9.4-29.3,9.4"/>
</svg>
