<svg xmlns="http://www.w3.org/2000/svg" xmlns:xlink="http://www.w3.org/1999/xlink" viewBox="0 0 76 39" fill="#fff" fill-rule="evenodd" stroke="#000" stroke-linecap="round" stroke-linejoin="round"><use xlink:href="#A" x=".5" y=".5"/><symbol id="A" overflow="visible"><g stroke="none" fill-rule="nonzero"><path d="M8.46 37.5l6.795-3.42 15.975-7.935v11.37L8.46 37.5z" fill="#01257d"/><path d="M.495 37.5l24.84-12.495h5.07L5.745 37.5z" fill="#ce142b"/><path d="M.03 25.005h16.41L.03 33.285zM43.74 37.5V26.19l22.8 11.31zM75 25.005H58.575L75 33.285z" fill="#01257d"/><path d="M75 37.5L50.22 25.005h5.34L75 34.68zM.03 22.5V15l33.27.015c.39 0 .48-.09.48-.48L33.765.015h7.5L41.25 14.49c0 .435.105.525.525.525L74.985 15v7.5c-11.085 0-22.17 0-33.27-.015-.39 0-.48.09-.48.48l.015 14.52h-7.5l.015-14.475c0-.435-.105-.525-.525-.525L.03 22.5z" fill="#ce142b"/><path d="M31.26.015v11.31L8.46.015zm35.31 0l-6.795 3.42-15.99 7.935V0L66.57.015z" fill="#01257d"/><path d="M74.535.015L49.68 12.51l-5.055-.015L69.285.015z" fill="#ce142b"/><path d="M75 12.51H58.575L75 4.23zm-75 0h16.41L0 4.23z" fill="#01257d"/><path d="M0 .015L24.78 12.51h-5.34L0 2.82z" fill="#ce142b"/></g></symbol></svg>