# Blender v2.93.6 OBJ File: 'projekt.blend'
# www.blender.org
mtllib Sub_Propeller.mtl
o Propeller_Plane.013
v -0.001640 0.009204 0.018982
v 0.025982 -0.010163 0.056191
v -0.002041 0.005617 0.038636
v 0.010772 -0.001829 0.073748
v 0.004920 -0.009204 0.017816
v 0.040760 -0.010910 0.073098
v 0.025717 -0.005792 0.078867
v 0.001656 0.003228 0.054697
v 0.014542 -0.010430 0.037270
v -0.001640 0.009204 0.018982
v 0.025982 -0.010163 0.056191
v -0.002041 0.005617 0.038636
v 0.010772 -0.001829 0.073748
v 0.004920 -0.009204 0.017816
v 0.040760 -0.010910 0.073098
v 0.025717 -0.005792 0.078867
v 0.001656 0.003228 0.054697
v 0.014542 -0.010430 0.037270
v -0.017259 0.009204 0.008071
v -0.035672 -0.010163 0.050597
v -0.034481 0.005617 0.017551
v -0.058482 -0.001829 0.046203
v -0.012969 -0.009204 0.013169
v -0.042924 -0.010910 0.071848
v -0.055443 -0.005792 0.061705
v -0.046541 0.003228 0.028783
v -0.025006 -0.010430 0.031228
v -0.017259 0.009204 0.008071
v -0.035672 -0.010163 0.050597
v -0.034481 0.005617 0.017551
v -0.058482 -0.001829 0.046203
v -0.012969 -0.009204 0.013169
v -0.042924 -0.010910 0.071848
v -0.055443 -0.005792 0.061705
v -0.046541 0.003228 0.028783
v -0.025006 -0.010430 0.031228
v -0.015619 0.009204 -0.010911
v -0.061654 -0.010163 -0.005594
v -0.032440 0.005617 -0.021086
v -0.069254 -0.001829 -0.027545
v -0.017889 -0.009204 -0.004647
v -0.083684 -0.010910 -0.001250
v -0.081159 -0.005792 -0.017162
v -0.048197 0.003228 -0.025915
v -0.039547 -0.010430 -0.006041
v -0.015619 0.009204 -0.010911
v -0.061654 -0.010163 -0.005594
v -0.032440 0.005617 -0.021086
v -0.069254 -0.001829 -0.027545
v -0.017889 -0.009204 -0.004647
v -0.083684 -0.010910 -0.001250
v -0.081159 -0.005792 -0.017162
v -0.048197 0.003228 -0.025915
v -0.039547 -0.010430 -0.006041
v 0.001640 0.009204 -0.018982
v -0.025982 -0.010163 -0.056191
v 0.002041 0.005617 -0.038636
v -0.010772 -0.001829 -0.073748
v -0.004920 -0.009204 -0.017816
v -0.040760 -0.010910 -0.073098
v -0.025716 -0.005792 -0.078867
v -0.001656 0.003228 -0.054697
v -0.014542 -0.010430 -0.037270
v 0.001640 0.009204 -0.018982
v -0.025982 -0.010163 -0.056191
v 0.002041 0.005617 -0.038636
v -0.010772 -0.001829 -0.073748
v -0.004920 -0.009204 -0.017816
v -0.040760 -0.010910 -0.073098
v -0.025716 -0.005792 -0.078867
v -0.001656 0.003228 -0.054697
v -0.014542 -0.010430 -0.037270
v 0.017259 0.009204 -0.008071
v 0.035672 -0.010163 -0.050597
v 0.034481 0.005617 -0.017551
v 0.058482 -0.001829 -0.046203
v 0.012969 -0.009204 -0.013169
v 0.042924 -0.010910 -0.071848
v 0.055443 -0.005792 -0.061705
v 0.046541 0.003228 -0.028783
v 0.025006 -0.010430 -0.031228
v 0.017259 0.009204 -0.008071
v 0.035672 -0.010163 -0.050597
v 0.034481 0.005617 -0.017551
v 0.058482 -0.001829 -0.046203
v 0.012969 -0.009204 -0.013169
v 0.042924 -0.010910 -0.071848
v 0.055443 -0.005792 -0.061705
v 0.046541 0.003228 -0.028783
v 0.025006 -0.010430 -0.031228
v 0.015619 0.009204 0.010911
v 0.061654 -0.010163 0.005594
v 0.032440 0.005617 0.021086
v 0.069254 -0.001829 0.027545
v 0.017889 -0.009204 0.004647
v 0.083684 -0.010910 0.001250
v 0.081159 -0.005792 0.017162
v 0.048197 0.003228 0.025915
v 0.039547 -0.010430 0.006041
v 0.015619 0.009204 0.010911
v 0.061654 -0.010163 0.005594
v 0.032440 0.005617 0.021086
v 0.069254 -0.001829 0.027545
v 0.017889 -0.009204 0.004647
v 0.083684 -0.010910 0.001250
v 0.081159 -0.005792 0.017162
v 0.048197 0.003228 0.025915
v 0.039547 -0.010430 0.006041
vt 0.681792 0.226348
vt 0.691230 0.258856
vt 0.707176 0.261837
vt 0.680858 0.247166
vt 0.689518 0.192062
vt 0.684875 0.210667
vt 0.705329 0.219250
vt 0.707176 0.198473
vt 0.704445 0.240451
vt 0.681792 0.226348
vt 0.707176 0.261837
vt 0.691230 0.258856
vt 0.680858 0.247166
vt 0.689518 0.192062
vt 0.707176 0.198473
vt 0.705329 0.219250
vt 0.684875 0.210667
vt 0.704445 0.240451
vt 0.681792 0.226348
vt 0.691230 0.258856
vt 0.707176 0.261837
vt 0.680858 0.247166
vt 0.689518 0.192062
vt 0.684875 0.210667
vt 0.705329 0.219250
vt 0.707176 0.198473
vt 0.704445 0.240451
vt 0.681792 0.226348
vt 0.707176 0.261837
vt 0.691230 0.258856
vt 0.680858 0.247166
vt 0.689518 0.192062
vt 0.707176 0.198473
vt 0.705329 0.219250
vt 0.684874 0.210667
vt 0.704445 0.240451
vt 0.681792 0.226348
vt 0.691230 0.258856
vt 0.707176 0.261837
vt 0.680858 0.247166
vt 0.689518 0.192062
vt 0.684874 0.210667
vt 0.705329 0.219250
vt 0.707176 0.198473
vt 0.704445 0.240451
vt 0.681792 0.226348
vt 0.707176 0.261837
vt 0.691230 0.258856
vt 0.680858 0.247166
vt 0.689518 0.192062
vt 0.707176 0.198473
vt 0.705329 0.219250
vt 0.684874 0.210667
vt 0.704445 0.240451
vt 0.681792 0.226348
vt 0.691230 0.258856
vt 0.707176 0.261837
vt 0.680858 0.247166
vt 0.689518 0.192062
vt 0.684875 0.210667
vt 0.705329 0.219250
vt 0.707176 0.198473
vt 0.704445 0.240451
vt 0.681792 0.226348
vt 0.707176 0.261837
vt 0.691230 0.258856
vt 0.680858 0.247166
vt 0.689518 0.192062
vt 0.707176 0.198473
vt 0.705329 0.219250
vt 0.684874 0.210667
vt 0.704445 0.240451
vt 0.681792 0.226348
vt 0.691230 0.258856
vt 0.707176 0.261837
vt 0.680858 0.247166
vt 0.689518 0.192062
vt 0.684874 0.210667
vt 0.705329 0.219250
vt 0.707176 0.198473
vt 0.704445 0.240451
vt 0.681792 0.226348
vt 0.707176 0.261837
vt 0.691230 0.258856
vt 0.680858 0.247166
vt 0.689518 0.192062
vt 0.707176 0.198473
vt 0.705329 0.219250
vt 0.684875 0.210667
vt 0.704445 0.240451
vt 0.681792 0.226348
vt 0.691230 0.258856
vt 0.707176 0.261837
vt 0.680858 0.247166
vt 0.689518 0.192062
vt 0.684874 0.210667
vt 0.705329 0.219250
vt 0.707176 0.198473
vt 0.704445 0.240451
vt 0.681792 0.226348
vt 0.707176 0.261837
vt 0.691230 0.258856
vt 0.680858 0.247166
vt 0.689518 0.192062
vt 0.707176 0.198473
vt 0.705329 0.219250
vt 0.684875 0.210667
vt 0.704445 0.240451
vn 0.5003 0.8508 -0.1604
vn 0.3079 0.9502 0.0480
vn 0.3923 0.9100 -0.1344
vn 0.2014 0.9663 0.1601
vn 0.8194 0.5595 -0.1243
vn 0.7176 0.6776 -0.1612
vn 0.6816 0.7112 -0.1720
vn 0.5017 0.8045 -0.3178
vn -0.5003 -0.8508 0.1604
vn -0.3923 -0.9100 0.1344
vn -0.3079 -0.9502 -0.0480
vn -0.2014 -0.9663 -0.1601
vn -0.8194 -0.5595 0.1243
vn -0.6816 -0.7112 0.1720
vn -0.7176 -0.6776 0.1612
vn -0.5017 -0.8045 0.3178
vn 0.3891 0.8508 0.3530
vn 0.1123 0.9502 0.2907
vn 0.3125 0.9100 0.2725
vn -0.0379 0.9663 0.2545
vn 0.5174 0.5595 0.6475
vn 0.4984 0.6776 0.5408
vn 0.4897 0.7112 0.5043
vn 0.5261 0.8045 0.2756
vn -0.3891 -0.8508 -0.3530
vn -0.3125 -0.9100 -0.2725
vn -0.1123 -0.9502 -0.2907
vn 0.0379 -0.9663 -0.2545
vn -0.5174 -0.5595 -0.6475
vn -0.4897 -0.7112 -0.5043
vn -0.4984 -0.6776 -0.5408
vn -0.5261 -0.8045 -0.2756
vn -0.1112 0.8508 0.5135
vn -0.1956 0.9502 0.2426
vn -0.0797 0.9100 0.4069
vn -0.2394 0.9663 0.0944
vn -0.3020 0.5595 0.7718
vn -0.2192 0.6776 0.7020
vn -0.1919 0.7112 0.6763
vn 0.0244 0.8045 0.5934
vn 0.1112 -0.8508 -0.5135
vn 0.0797 -0.9100 -0.4069
vn 0.1956 -0.9502 -0.2426
vn 0.2394 -0.9663 -0.0944
vn 0.3020 -0.5595 -0.7718
vn 0.1919 -0.7112 -0.6763
vn 0.2192 -0.6776 -0.7020
vn -0.0244 -0.8045 -0.5934
vn -0.5003 0.8508 0.1604
vn -0.3079 0.9502 -0.0480
vn -0.3923 0.9100 0.1344
vn -0.2014 0.9663 -0.1601
vn -0.8194 0.5595 0.1243
vn -0.7176 0.6776 0.1612
vn -0.6816 0.7112 0.1720
vn -0.5017 0.8045 0.3178
vn 0.5003 -0.8508 -0.1604
vn 0.3923 -0.9100 -0.1344
vn 0.3079 -0.9502 0.0480
vn 0.2014 -0.9663 0.1601
vn 0.8194 -0.5595 -0.1243
vn 0.6816 -0.7112 -0.1720
vn 0.7176 -0.6776 -0.1612
vn 0.5017 -0.8045 -0.3178
vn -0.3891 0.8508 -0.3530
vn -0.1123 0.9502 -0.2907
vn -0.3125 0.9100 -0.2725
vn 0.0379 0.9663 -0.2545
vn -0.5174 0.5595 -0.6475
vn -0.4984 0.6776 -0.5408
vn -0.4897 0.7112 -0.5043
vn -0.5261 0.8045 -0.2756
vn 0.3891 -0.8508 0.3530
vn 0.3125 -0.9100 0.2725
vn 0.1123 -0.9502 0.2907
vn -0.0379 -0.9663 0.2545
vn 0.5174 -0.5595 0.6475
vn 0.4897 -0.7112 0.5043
vn 0.4984 -0.6776 0.5408
vn 0.5261 -0.8045 0.2756
vn 0.1112 0.8508 -0.5135
vn 0.1956 0.9502 -0.2427
vn 0.0797 0.9100 -0.4069
vn 0.2394 0.9663 -0.0944
vn 0.3020 0.5595 -0.7718
vn 0.2192 0.6776 -0.7020
vn 0.1919 0.7112 -0.6763
vn -0.0244 0.8045 -0.5934
vn -0.1112 -0.8508 0.5135
vn -0.0797 -0.9100 0.4069
vn -0.1956 -0.9502 0.2427
vn -0.2394 -0.9663 0.0944
vn -0.3020 -0.5595 0.7718
vn -0.1919 -0.7112 0.6763
vn -0.2192 -0.6776 0.7020
vn 0.0244 -0.8045 0.5934
usemtl Material.001
s 1
f 8/1/1 7/2/2 6/3/3
f 8/1/1 4/4/4 7/2/2
f 1/5/5 3/6/6 9/7/7 5/8/5
f 3/6/6 8/1/1 2/9/8 9/7/7
f 2/9/8 8/1/1 6/3/3
f 17/10/9 15/11/10 16/12/11
f 17/10/9 16/12/11 13/13/12
f 10/14/13 14/15/13 18/16/14 12/17/15
f 12/17/15 18/16/14 11/18/16 17/10/9
f 11/18/16 15/11/10 17/10/9
f 26/19/17 25/20/18 24/21/19
f 26/19/17 22/22/20 25/20/18
f 19/23/21 21/24/22 27/25/23 23/26/21
f 21/24/22 26/19/17 20/27/24 27/25/23
f 20/27/24 26/19/17 24/21/19
f 35/28/25 33/29/26 34/30/27
f 35/28/25 34/30/27 31/31/28
f 28/32/29 32/33/29 36/34/30 30/35/31
f 30/35/31 36/34/30 29/36/32 35/28/25
f 29/36/32 33/29/26 35/28/25
f 44/37/33 43/38/34 42/39/35
f 44/37/33 40/40/36 43/38/34
f 37/41/37 39/42/38 45/43/39 41/44/37
f 39/42/38 44/37/33 38/45/40 45/43/39
f 38/45/40 44/37/33 42/39/35
f 53/46/41 51/47/42 52/48/43
f 53/46/41 52/48/43 49/49/44
f 46/50/45 50/51/45 54/52/46 48/53/47
f 48/53/47 54/52/46 47/54/48 53/46/41
f 47/54/48 51/47/42 53/46/41
f 62/55/49 61/56/50 60/57/51
f 62/55/49 58/58/52 61/56/50
f 55/59/53 57/60/54 63/61/55 59/62/53
f 57/60/54 62/55/49 56/63/56 63/61/55
f 56/63/56 62/55/49 60/57/51
f 71/64/57 69/65/58 70/66/59
f 71/64/57 70/66/59 67/67/60
f 64/68/61 68/69/61 72/70/62 66/71/63
f 66/71/63 72/70/62 65/72/64 71/64/57
f 65/72/64 69/65/58 71/64/57
f 80/73/65 79/74/66 78/75/67
f 80/73/65 76/76/68 79/74/66
f 73/77/69 75/78/70 81/79/71 77/80/69
f 75/78/70 80/73/65 74/81/72 81/79/71
f 74/81/72 80/73/65 78/75/67
f 89/82/73 87/83/74 88/84/75
f 89/82/73 88/84/75 85/85/76
f 82/86/77 86/87/77 90/88/78 84/89/79
f 84/89/79 90/88/78 83/90/80 89/82/73
f 83/90/80 87/83/74 89/82/73
f 98/91/81 97/92/82 96/93/83
f 98/91/81 94/94/84 97/92/82
f 91/95/85 93/96/86 99/97/87 95/98/85
f 93/96/86 98/91/81 92/99/88 99/97/87
f 92/99/88 98/91/81 96/93/83
f 107/100/89 105/101/90 106/102/91
f 107/100/89 106/102/91 103/103/92
f 100/104/93 104/105/93 108/106/94 102/107/95
f 102/107/95 108/106/94 101/108/96 107/100/89
f 101/108/96 105/101/90 107/100/89
